<?xml version="1.0" encoding="utf-8"?>
<?xml-stylesheet type="text/xsl" href="rss1.xsl"?>
<rss version="2.0" xmlns:atom="http://www.w3.org/2005/Atom" xmlns:content="http://purl.org/rss/1.0/modules/content/" xmlns:dc="http://purl.org/dc/elements/1.1/" xmlns:media="http://search.yahoo.com/mrss/">
<channel>
 <title>Getty</title>
 <link>http://www.gettyimg.com/</link>
 <atom:link href="http://www.gettyimg.com/" rel="self" type="application/rss+xml" />

 
                <item>
                <title><![CDATA[【Requests】[REQ VID] - Regular.Show.S01-S02.1080p.DD2.0.VC-1.REMUX-FraMeSToR]]></title>
                <link><![CDATA[https://sharemania.us/threads/regular-show-s01-s02-1080p-dd2-0-vc-1-remux-framestor.233719/]]></link>
                <description><![CDATA[<article>
<blockquote class="messageText SelectQuoteContainer ugc baseHtml">
Pls re-upload?
<div class="messageTextEndMarker">&nbsp;</div>
</blockquote>
</article>]]></description>
                <author><![CDATA[Retrovirus]]></author>
                </item>

                
                <item>
                <title><![CDATA[【Requests】[REQ AUD] - CSS - ITunes Live: London Festival '08]]></title>
                <link><![CDATA[https://sharemania.us/threads/css-itunes-live-london-festival-08.233721/]]></link>
                <description><![CDATA[<article>
<blockquote class="messageText SelectQuoteContainer ugc baseHtml">
Hi guys, does anyone have this EP? It's not available in my region (I think it's only available in Japan). Please, help me if you can. <br>
Thanks. <br>
<br>
Here it's the link <br>
<a href="https://music.apple.com/jp/album/itunes-live-london-festival-08-ep/287663435?l=en-US" target="_blank" class="externalLink" rel="nofollow">https://music.apple.com/jp/album/itunes-live-london-festival-08-ep/287663435?l=en-US</a>
<div class="messageTextEndMarker">&nbsp;</div>
</blockquote>
</article>]]></description>
                <author><![CDATA[cahamarin]]></author>
                </item>

                
                <item>
                <title><![CDATA[【Cinema Center】SERIES - Bubble Guppies - Season 6 - 1080p Amazon WEB-DL DDP5.1 H.264-LAZY]]></title>
                <link><![CDATA[https://sharemania.us/threads/bubble-guppies-season-6-1080p-amazon-web-dl-ddp5-1-h-264-lazy.233720/]]></link>
                <description><![CDATA[<article>
<blockquote class="messageText SelectQuoteContainer ugc baseHtml">
Bubble Guppies:<img src="https://i.imgur.com/F99jJuE.jpg" class="bbCodeImage LbImage" alt="[​IMG]" data-url="https://i.imgur.com/F99jJuE.jpg" style=""><br>
<br>
<div class="bbCodeBlock bbCodeQuote">
<aside>
<blockquote class="quoteContainer"><div class="quote"><i><b>Synopsis:</b></i><br>
The adventures of seven fish-tailed kids- Molly, Gil, Oona, Deema, Nonny, Goby, and Zooli!</div><div class="quoteExpand">Click to expand...</div></blockquote>
</aside>
</div>
<div class="ToggleTriggerAnchor bbCodeSpoilerContainer">
<button type="button" class="button bbCodeSpoilerButton ToggleTrigger Tooltip JsOnly" data-target="> .SpoilerTarget"><span>Spoiler: <span class="SpoilerTitle">MediaInfo</span></span></button>
<div class="SpoilerTarget bbCodeSpoilerText">General<br>
Unique ID : 330652765428058435357471174162790160855 (0xF8C167FD972DF2D67B65B2ECEAC719D7)<br>
Complete name : Bubble.Guppies.S06E01.Werewolves.of.Bubbledon.1080p.AMZN.WEB-DL.DDP5.1.H.264-LAZY.mkv<br>
Format : Matroska<br>
Format version : Version 4<br>
File size : 720 MiB<br>
Duration : 22 min 38 s<br>
Overall bit rate : 4 450 kb/s<br>
Frame rate : 23.976 FPS<br>
Encoded date : 2023-12-07 23:03:59 UTC<br>
Writing application : mkvmerge v81.0 ('Milliontown') 64-bit<br>
Writing library : libebml v1.4.4 + libmatroska v1.7.1<br>
<br>
Video<br>
ID : 1<br>
Format : AVC<br>
Format/Info : Advanced Video Codec<br>
Format profile : High@L4<br>
Format settings : CABAC / 4 Ref Frames<br>
Format settings, CABAC : Yes<br>
Format settings, Reference frames : 4 frames<br>
Codec ID : V_MPEG4/ISO/AVC<br>
Duration : 22 min 38 s<br>
Bit rate mode : Constant<br>
Bit rate : 3 808 kb/s<br>
Nominal bit rate : 10 000 kb/s<br>
Width : 1 920 pixels<br>
Height : 1 080 pixels<br>
Display aspect ratio : 16:9<br>
Frame rate mode : Constant<br>
Frame rate : 23.976 (24000/1001) FPS<br>
Color space : YUV<br>
Chroma subsampling : 4:2:0<br>
Bit depth : 8 bits<br>
Scan type : Progressive<br>
Bits/(Pixel*Frame) : 0.077<br>
Stream size : 616 MiB (86%)<br>
Default : Yes<br>
Forced : No<br>
Color range : Limited<br>
Color primaries : BT.709<br>
Transfer characteristics : BT.709<br>
Matrix coefficients : BT.709<br>
<br>
Audio<br>
ID : 2<br>
Format : E-AC-3<br>
Format/Info : Enhanced AC-3<br>
Commercial name : Dolby Digital Plus<br>
Codec ID : A_EAC3<br>
Duration : 22 min 38 s<br>
Bit rate mode : Constant<br>
Bit rate : 640 kb/s<br>
Channel(s) : 6 channels<br>
Channel layout : L R C LFE Ls Rs<br>
Sampling rate : 48.0 kHz<br>
Frame rate : 31.250 FPS (1536 SPF)<br>
Compression mode : Lossy<br>
Stream size : 104 MiB (14%)<br>
Language : English<br>
Service kind : Complete Main<br>
Default : Yes<br>
Forced : No<br>
<br>
Text<br>
ID : 3<br>
Format : UTF-8<br>
Codec ID : S_TEXT/UTF8<br>
Codec ID/Info : UTF-8 Plain Text<br>
Duration : 22 min 14 s<br>
Bit rate : 71 b/s<br>
Frame rate : 0.360 FPS<br>
Count of elements : 480<br>
Stream size : 11.7 KiB (0%)<br>
Title : SDH<br>
Language : English<br>
Default : No<br>
Forced : No</div>
</div><br>
Screenshots:<br>
<img src="https://i.imgur.com/Q3zdcMC.jpg" class="bbCodeImage LbImage" alt="[​IMG]" data-url="https://i.imgur.com/Q3zdcMC.jpg" style=""> <br>
<div class="bbCodeBlock bbCodeVfcHH HiddenContent">
<div class="attribution type">Hidden Content:</div>
<blockquote>You must either reply or click 'Like' to see the hidden information contained here.</blockquote>
</div>
<div class="messageTextEndMarker">&nbsp;</div>
</blockquote>
</article>]]></description>
                <author><![CDATA[LazyRips]]></author>
                </item>

                </channel></rss>